<?xml version="1.0" encoding="UTF-8" standalone="no"?>
<!DOCTYPE svg PUBLIC "-//W3C//DTD SVG 1.1//EN" "http://www.w3.org/Graphics/SVG/1.1/DTD/svg11.dtd">
<svg width="100%" height="100%" viewBox="0 0 360 96" version="1.1" xmlns="http://www.w3.org/2000/svg" xmlns:xlink="http://www.w3.org/1999/xlink" xml:space="preserve" xmlns:serif="http://www.serif.com/" style="fill-rule:evenodd;clip-rule:evenodd;stroke-linejoin:round;stroke-miterlimit:2;">
    <g transform="matrix(1.36468,0,0,1.36468,-66.3853,-19.4007)">
        <path d="M226,27.8L226,67.1C225.7,67 225.6,66.9 225.5,66.7C216.6,54 207.7,41.4 198.9,28.7C198.5,28.1 198,27.8 197.2,27.8C195.7,27.9 191.2,27.8 191.2,27.8L191.2,77.5L197.6,77.5L197.6,38.1C197.7,38.1 197.8,38.1 197.9,38C200.4,41.5 202.8,45 205.3,48.4C211.9,57.7 218.4,67 224.9,76.3C225.3,76.9 225.8,77.2 226.6,77.2C228.2,77.1 232.6,77.2 232.6,77.2L232.6,27.6L226,27.8Z" style="fill-rule:nonzero;"/>
    </g>
    <g transform="matrix(1.36468,0,0,1.36468,-66.3853,-19.4007)">
        <path d="M150.6,27.8L150.6,54.7C150.6,56.3 150.5,58 150.3,59.6C149.5,66.9 144.8,71.2 137.7,71.4C131.5,71.6 126.7,68.1 125.2,62.2C124.6,60 124.4,57.6 124.4,55.3L124.4,27.8L118.1,27.8C118.1,27.8 118.1,46.6 118.2,55.5C118.2,58.1 118.4,60.7 118.9,63.2C120,69 123.3,73.3 128.8,75.7C132.9,77.5 137.2,77.7 141.5,77.1C145.7,76.5 149.4,74.8 152.3,71.6C155.6,67.9 156.8,63.4 156.9,58.6C157,48.7 157,37.8 157,27.8L150.6,27.8Z" style="fill-rule:nonzero;"/>
    </g>
    <g transform="matrix(1.36468,0,0,1.36468,-66.3853,-19.4007)">
        <path d="M77.4,27.8L83.8,27.8L83.8,60.6C83.8,63.8 83.3,67 81.7,69.9C79.5,73.9 76.2,76.4 71.6,76.9C66,77.6 60.9,76.3 57,72C55.4,70.2 54.4,68.1 54,65.6C55.9,65.2 59.7,64.3 59.7,64.3C59.7,64.3 60,65.1 60.1,65.4C61.9,70.5 66.9,72.3 71.7,70.9C75.2,69.8 76.6,67 77.2,63.6C77.4,62.3 77.5,60.9 77.5,59.6C77.4,49.4 77.4,27.8 77.4,27.8Z" style="fill-rule:nonzero;"/>
    </g>
    <g transform="matrix(1.36468,0,0,1.36468,-66.3853,-19.4007)">
        <path d="M281.5,35.8C286.4,35.8 291,37.4 294.9,40.5C299.5,44.1 302.3,49.3 303,55C304.3,66.1 296.8,76.4 286,78.8C286.5,78.7 287.1,78.7 287.6,78.6C294.3,77.8 300.4,74.4 304.6,69.1C308.8,63.8 310.7,57.1 309.9,50.4C309.1,43.7 305.7,37.6 300.4,33.4C295.1,29.2 288.4,27.3 281.7,28.1C275,28.9 268.9,32.3 264.7,37.6C260.5,42.9 258.6,49.6 259.4,56.3C259.5,57.2 259.7,58.2 259.9,59.2C258.9,47.6 267.3,37.4 278.9,36C279.8,35.9 280.6,35.8 281.5,35.8Z" style="fill-rule:nonzero;"/>
    </g>
</svg>
