<?xml version="1.0" encoding="utf-8"?>
<!-- Generator: Adobe Illustrator 26.0.1, SVG Export Plug-In . SVG Version: 6.00 Build 0)  -->
<svg version="1.1" id="Layer_1" xmlns="http://www.w3.org/2000/svg" xmlns:xlink="http://www.w3.org/1999/xlink" x="0px" y="0px"
	 viewBox="0 0 360 95.7" style="enable-background:new 0 0 360 95.7;" xml:space="preserve">
<path class="st0" d="M226,27.8c0,12.9,0,26.4,0,39.3c-0.3-0.1-0.4-0.2-0.5-0.4c-8.9-12.7-17.8-25.3-26.6-38
	c-0.4-0.6-0.9-0.9-1.7-0.9c-1.5,0.1-6,0-6,0l0,49.7l6.4,0c0,0,0-26.5,0-39.4c0.1,0,0.2,0,0.3-0.1c2.5,3.5,4.9,7,7.4,10.4
	c6.6,9.3,13.1,18.6,19.6,27.9c0.4,0.6,0.9,0.9,1.7,0.9c1.6-0.1,6,0,6,0s0-34.1,0-49.6L226,27.8z"/>
<path class="st0" d="M150.6,27.8c0,0,0,18.3,0,26.9c0,1.6-0.1,3.3-0.3,4.9c-0.8,7.3-5.5,11.6-12.6,11.8c-6.2,0.2-11-3.3-12.5-9.2
	c-0.6-2.2-0.8-4.6-0.8-6.9c0-8.8,0-27.5,0-27.5h-6.3c0,0,0,18.8,0.1,27.7c0,2.6,0.2,5.2,0.7,7.7c1.1,5.8,4.4,10.1,9.9,12.5
	c4.1,1.8,8.4,2,12.7,1.4c4.2-0.6,7.9-2.3,10.8-5.5c3.3-3.7,4.5-8.2,4.6-13c0.1-9.9,0.1-20.8,0.1-30.8L150.6,27.8z"/>
<path class="st0" d="M77.4,27.8l6.4,0c0,0,0,22.3,0,32.8c0,3.2-0.5,6.4-2.1,9.3c-2.2,4-5.5,6.5-10.1,7c-5.6,0.7-10.7-0.6-14.6-4.9
	c-1.6-1.8-2.6-3.9-3-6.4c1.9-0.4,5.7-1.3,5.7-1.3s0.3,0.8,0.4,1.1c1.8,5.1,6.8,6.9,11.6,5.5c3.5-1.1,4.9-3.9,5.5-7.3
	c0.2-1.3,0.3-2.7,0.3-4C77.4,49.4,77.4,27.8,77.4,27.8z"/>
<g>
	<path class="st0" d="M281.5,35.8c4.9,0,9.5,1.6,13.4,4.7c4.6,3.6,7.4,8.8,8.1,14.5c1.3,11.1-6.2,21.4-17,23.8
		c0.5-0.1,1.1-0.1,1.6-0.2c6.7-0.8,12.8-4.2,17-9.5s6.1-12,5.3-18.7c0,0,0,0,0,0c-0.8-6.7-4.2-12.8-9.5-17c-5.3-4.2-12-6.1-18.7-5.3
		c-6.7,0.8-12.8,4.2-17,9.5c-4.2,5.3-6.1,12-5.3,18.7c0.1,0.9,0.3,1.9,0.5,2.9c-1-11.6,7.4-21.8,19-23.2
		C279.8,35.9,280.6,35.8,281.5,35.8z"/>
</g>
</svg>
